<?xml version="1.0" encoding="utf-8"?>
<!-- Generator: Adobe Illustrator 24.0.0, SVG Export Plug-In . SVG Version: 6.00 Build 0)  -->
<svg version="1.1" id="Layer_1" xmlns="http://www.w3.org/2000/svg" xmlns:xlink="http://www.w3.org/1999/xlink" x="0px" y="0px"
	 viewBox="0 0 189.96 33.19" style="enable-background:new 0 0 189.96 33.19;" xml:space="preserve">
<style type="text/css">
	.st0{fill:#94154B;}
</style>
<g>
	<g>
		<path d="M61.23,27.44c-0.35,0-0.61-0.05-0.78-0.16c-0.33-0.2-0.73-0.92-1.21-2.18l-3.52-9.35l-4.27,11.76h-0.52
			c-0.3,0-0.55-0.05-0.75-0.16c-0.39-0.2-0.83-0.94-1.3-2.25L42.73,8.78H41V7.9h8.27v0.88h-2.61l5.24,14.56l3.26-9.09L52.79,7.9h6.9
			v0.88l-2.61-0.03l5.11,14.4l4.75-14.36h-2.61V7.9h5.34v0.88h-1.63l-6.29,18.66H61.23z"/>
		<path d="M77.9,26.63c0.33,0.04,0.49,0.32,0.49,0.81h-7.82V26.6c0.43,0,0.78-0.03,1.04-0.1c0.72-0.17,1.08-0.73,1.08-1.66V14.32
			h-2.12V13.5h5.7V26.6h1.34C77.72,26.6,77.82,26.61,77.9,26.63z M76.34,10.12c-0.41,0.76-1.06,1.14-1.95,1.14
			c-0.35,0-0.68-0.08-1.01-0.23c-0.8-0.39-1.21-1.04-1.21-1.95c0-0.35,0.09-0.69,0.26-1.04c0.41-0.8,1.06-1.21,1.95-1.21
			c0.35,0,0.68,0.09,1.01,0.26c0.8,0.43,1.21,1.1,1.21,1.99C76.6,9.44,76.51,9.79,76.34,10.12z"/>
		<path d="M86.99,26.63c0.28,0.07,0.42,0.34,0.42,0.81h-7.49V26.6c0.39,0,0.73-0.03,1.01-0.1c0.72-0.15,1.07-0.71,1.07-1.66V14.32
			h-2.08V13.5h5.47l0.16,2.7c0.22-0.46,0.5-0.89,0.85-1.3c1.09-1.24,2.41-1.86,3.97-1.86c0.65,0,1.26,0.12,1.82,0.36
			c1.78,0.74,2.67,2.39,2.67,4.95v8.24h1.27c0.13,0,0.26,0.01,0.39,0.03c0.28,0.07,0.42,0.34,0.42,0.81H89.5V26.6
			c0.46,0,0.8-0.04,1.04-0.13c0.5-0.17,0.75-0.72,0.75-1.63v-6.97c0-0.48-0.05-0.91-0.16-1.3c-0.33-1.28-1.1-1.92-2.31-1.92
			c-0.41,0-0.83,0.11-1.24,0.33c-1.15,0.65-1.8,1.85-1.95,3.58l-0.03,8.04h1.01C86.73,26.6,86.86,26.61,86.99,26.63z"/>
		<path d="M111.22,25.13c-1.11,1.76-2.9,2.64-5.37,2.64c-1.46,0-2.77-0.33-3.94-0.98c-2.19-1.28-3.29-3.41-3.29-6.38
			c0-1.82,0.47-3.38,1.4-4.66c1.32-1.8,3.24-2.7,5.73-2.7c1.37,0,2.59,0.26,3.68,0.78c1.74,0.87,2.61,2.16,2.61,3.88
			c0,0.48-0.11,0.89-0.33,1.24c-0.65,1-2.61,1.47-5.86,1.4l-3.29-0.07c0,0.02,0,0.04,0,0.07c0.11,4.32,1.43,6.48,3.97,6.48
			c0.48,0,0.94-0.08,1.4-0.23c1.37-0.43,2.37-1.34,3-2.7l0.78,0.26C111.58,24.48,111.42,24.8,111.22,25.13z M105,13.99
			c-1.54,0.48-2.36,2.26-2.44,5.34l2.51,0.1c0.91,0.02,1.61-0.03,2.08-0.16c0.74-0.26,1.11-0.9,1.11-1.92c0-0.37-0.03-0.73-0.1-1.07
			c-0.26-1.58-1.06-2.38-2.41-2.38C105.51,13.89,105.26,13.93,105,13.99z"/>
		<path d="M123.3,27.44v-0.88h3.09V8.78h-0.94c-0.44,0-0.83,0.05-1.17,0.16c-1.15,0.35-1.99,1.37-2.51,3.06l-0.85,2.7h-0.98
			l0.16-6.81h16.61l0.13,6.81h-0.94l-0.85-2.7c-0.09-0.28-0.19-0.55-0.29-0.81c-0.67-1.61-1.8-2.41-3.39-2.41h-0.98v17.78h2.21
			c0.39,0.04,0.67,0.34,0.85,0.88H123.3z"/>
		<path d="M145.78,26.63c0.33,0.04,0.49,0.32,0.49,0.81h-7.82V26.6c0.43,0,0.78-0.03,1.04-0.1c0.72-0.17,1.08-0.73,1.08-1.66V14.32
			h-2.12V13.5h5.7V26.6h1.34C145.59,26.6,145.69,26.61,145.78,26.63z M144.21,10.12c-0.41,0.76-1.06,1.14-1.95,1.14
			c-0.35,0-0.68-0.08-1.01-0.23c-0.8-0.39-1.21-1.04-1.21-1.95c0-0.35,0.09-0.69,0.26-1.04c0.41-0.8,1.06-1.21,1.95-1.21
			c0.35,0,0.68,0.09,1.01,0.26c0.8,0.43,1.21,1.1,1.21,1.99C144.48,9.44,144.39,9.79,144.21,10.12z"/>
		<path d="M154.64,26.63c0.33,0.04,0.49,0.32,0.49,0.81h-7.33V26.6c0.39,0,0.73-0.03,1.01-0.1c0.72-0.15,1.07-0.71,1.07-1.66V14.32
			h-2.08V13.5h5.47l0.16,2.61c0.09-0.17,0.17-0.35,0.26-0.52c0.98-1.69,2.42-2.54,4.33-2.54c0.37,0,0.73,0.05,1.07,0.16
			c1.35,0.41,2.26,1.42,2.74,3.03c0.02-0.06,0.05-0.14,0.1-0.23c1.02-1.98,2.55-2.96,4.59-2.96c0.76,0,1.47,0.21,2.12,0.62
			c1.43,0.89,2.15,2.41,2.15,4.56v8.37h1.24c0.13,0,0.26,0.01,0.39,0.03c0.28,0.07,0.42,0.34,0.42,0.81h-7.33V26.6
			c0.48,0,0.84-0.05,1.08-0.16c0.41-0.17,0.62-0.71,0.62-1.6v-6.97c0-0.59-0.08-1.13-0.23-1.63c-0.39-1.11-1.09-1.66-2.08-1.66
			c-0.28,0-0.56,0.07-0.85,0.2c-1.04,0.5-1.68,1.55-1.92,3.16v0.42v8.24h0.85c0.13,0,0.26,0.01,0.39,0.03
			c0.28,0.07,0.42,0.34,0.42,0.81h-6.94V26.6c0.48,0,0.84-0.05,1.07-0.16c0.41-0.17,0.62-0.71,0.62-1.6v-6.97
			c0-0.61-0.08-1.15-0.23-1.63c-0.37-1.06-1-1.6-1.89-1.6c-0.35,0-0.69,0.1-1.04,0.29c-1.11,0.63-1.74,1.83-1.89,3.62l-0.03,8.04
			h0.88C154.45,26.6,154.55,26.61,154.64,26.63z"/>
		<path d="M187.14,25.13c-1.11,1.76-2.9,2.64-5.37,2.64c-1.46,0-2.77-0.33-3.94-0.98c-2.19-1.28-3.29-3.41-3.29-6.38
			c0-1.82,0.47-3.38,1.4-4.66c1.32-1.8,3.24-2.7,5.73-2.7c1.37,0,2.59,0.26,3.68,0.78c1.74,0.87,2.61,2.16,2.61,3.88
			c0,0.48-0.11,0.89-0.33,1.24c-0.65,1-2.61,1.47-5.86,1.4l-3.29-0.07c0,0.02,0,0.04,0,0.07c0.11,4.32,1.43,6.48,3.97,6.48
			c0.48,0,0.94-0.08,1.4-0.23c1.37-0.43,2.37-1.34,3-2.7l0.78,0.26C187.5,24.48,187.34,24.8,187.14,25.13z M180.92,13.99
			c-1.54,0.48-2.36,2.26-2.44,5.34l2.51,0.1c0.91,0.02,1.61-0.03,2.08-0.16c0.74-0.26,1.11-0.9,1.11-1.92c0-0.37-0.03-0.73-0.1-1.07
			c-0.26-1.58-1.06-2.38-2.41-2.38C181.43,13.89,181.18,13.93,180.92,13.99z"/>
	</g>
	<g>
		<path class="st0" d="M31.52,9.62c1.06,2.1,1.67,4.47,1.67,6.98c0,8.6-7,15.59-15.59,15.59S2,25.19,2,16.59S9,1,17.59,1
			c3.12,0,6.02,0.93,8.46,2.51c-0.14-0.02-0.27-0.04-0.42-0.04c-0.78,0-1.51,0.26-2.12,0.72c-1.8-0.86-3.8-1.36-5.92-1.36
			c-4.67,0-8.79,2.34-11.28,5.9l7.83,4.77l-0.81,0.81c-0.18,0.18-0.33,0.36-0.46,0.56l-7.5-4.57c-0.97,1.89-1.53,4.02-1.53,6.29
			c0,7.59,6.17,13.76,13.76,13.76s13.76-6.17,13.76-13.76c0-1.66-0.31-3.24-0.85-4.71l0,0C31.12,11.27,31.46,10.47,31.52,9.62z
			 M13.57,4.73l0.47,1.4c0.35-0.12,0.71-0.22,1.07-0.3l-0.33-1.44C14.37,4.49,13.97,4.6,13.57,4.73z M6.64,18.05l-1.46,0.19
			c0.05,0.42,0.13,0.84,0.23,1.24l1.43-0.34C6.76,18.78,6.69,18.42,6.64,18.05z M27.21,24.61l-1.13-0.94
			c-0.24,0.28-0.49,0.56-0.75,0.82l1.03,1.05C26.66,25.24,26.94,24.93,27.21,24.61z M18.06,5.56c0.37,0.02,0.74,0.05,1.11,0.1
			l0.21-1.46c-0.41-0.06-0.83-0.1-1.25-0.11L18.06,5.56z M9.52,26.16c0.32,0.27,0.65,0.53,1,0.76l0.84-1.21
			c-0.31-0.21-0.6-0.44-0.89-0.67L9.52,26.16z M23.67,27.54l-0.72-1.29c-0.32,0.18-0.65,0.34-0.99,0.49l0.58,1.35
			C22.93,27.93,23.31,27.75,23.67,27.54z M6.85,13.99l-1.43-0.34c-0.1,0.41-0.17,0.82-0.23,1.23l1.46,0.2
			C6.7,14.72,6.77,14.35,6.85,13.99z M30.09,17.31c0.01-0.23,0.02-0.47,0.02-0.71c0-0.18,0-0.37-0.01-0.58l-0.74-0.05l-0.73,0.14
			c0.01,0.16,0.01,0.33,0.01,0.49c0,0.21-0.01,0.42-0.02,0.63L30.09,17.31z M13.51,28.43c0.39,0.14,0.8,0.25,1.21,0.35l0.33-1.43
			c-0.36-0.08-0.72-0.19-1.07-0.31L13.51,28.43z M29.46,20.6l-1.4-0.47c-0.12,0.35-0.25,0.7-0.41,1.03l1.34,0.61
			C29.17,21.39,29.32,21,29.46,20.6z M17.99,27.63l0.15,1.47c0.4-0.02,0.79-0.05,1.18-0.11l-0.2-1.46
			C18.77,27.58,18.42,27.62,17.99,27.63z M6.61,22.61c0.2,0.37,0.42,0.73,0.66,1.07l1.21-0.83c-0.21-0.3-0.4-0.62-0.58-0.95
			L6.61,22.61z M9.56,6.99l0.94,1.13c0.29-0.24,0.58-0.46,0.89-0.67l-0.83-1.22C10.22,6.46,9.89,6.72,9.56,6.99z M26.93,5.72
			c-0.36-0.36-0.82-0.53-1.29-0.53c-0.47,0-0.93,0.18-1.29,0.53l-9.81,9.81c-0.78,0.78-0.78,2.04,0,2.81l2.13,2.13
			c0.39,0.39,0.9,0.58,1.41,0.58c0.51,0,1.02-0.19,1.41-0.58l9.81-9.81c0.71-0.71,0.71-1.87,0-2.58c-0.16-0.16-0.16-0.42,0-0.58
			l2.37-2.37c0.26-0.26,0.26-0.67,0-0.93l-0.86-0.86c-0.13-0.13-0.3-0.19-0.46-0.19s-0.34,0.06-0.46,0.19l-2.37,2.37
			c-0.08,0.08-0.19,0.12-0.29,0.12S27.01,5.8,26.93,5.72z"/>
	</g>
</g>
</svg>
