<?xml version="1.0" encoding="utf-8"?>
<!-- Generator: Adobe Illustrator 24.0.0, SVG Export Plug-In . SVG Version: 6.00 Build 0)  -->
<svg version="1.1" id="Layer_1" xmlns="http://www.w3.org/2000/svg" xmlns:xlink="http://www.w3.org/1999/xlink" x="0px" y="0px"
	 viewBox="0 0 173.4 25.6" style="enable-background:new 0 0 173.4 25.6;" xml:space="preserve">
<style type="text/css">
	.st0{fill:#94154B;}
</style>
<g>
	<g>
		<path d="M45.7,22.5c-0.3,0-0.6,0-0.8-0.2c-0.3-0.2-0.7-0.9-1.2-2.2l-3.5-9.4l-4.3,11.8h-0.5c-0.3,0-0.5,0-0.8-0.2
			c-0.4-0.2-0.8-0.9-1.3-2.2L27.2,3.8h-1.7V2.9h8.3v0.9h-2.6l5.2,14.6l3.3-9.1l-2.4-6.3h6.9v0.9l-2.6,0l5.1,14.4l4.8-14.4h-2.6V2.9
			h5.3v0.9h-1.6l-6.3,18.7C46.2,22.5,45.7,22.5,45.7,22.5z"/>
		<path d="M62.4,21.7c0.3,0,0.5,0.3,0.5,0.8H55v-0.8c0.4,0,0.8,0,1-0.1c0.7-0.2,1.1-0.7,1.1-1.7V9.4H55V8.5h5.7v13.1h1.3
			C62.2,21.6,62.3,21.6,62.4,21.7z M60.8,5.2c-0.4,0.8-1.1,1.1-1.9,1.1c-0.3,0-0.7-0.1-1-0.2c-0.8-0.4-1.2-1-1.2-1.9
			c0-0.4,0.1-0.7,0.3-1c0.4-0.8,1.1-1.2,1.9-1.2c0.3,0,0.7,0.1,1,0.3c0.8,0.4,1.2,1.1,1.2,2C61.1,4.5,61,4.8,60.8,5.2z"/>
		<path d="M71.4,21.7c0.3,0.1,0.4,0.3,0.4,0.8h-7.5v-0.8c0.4,0,0.7,0,1-0.1c0.7-0.1,1.1-0.7,1.1-1.7V9.4h-2.1V8.5h5.5l0.2,2.7
			c0.2-0.5,0.5-0.9,0.8-1.3c1.1-1.2,2.4-1.9,4-1.9c0.7,0,1.3,0.1,1.8,0.4c1.8,0.7,2.7,2.4,2.7,4.9v8.2h1.3c0.1,0,0.3,0,0.4,0
			c0.3,0.1,0.4,0.3,0.4,0.8H74v-0.8c0.5,0,0.8,0,1-0.1c0.5-0.2,0.8-0.7,0.8-1.6v-7c0-0.5-0.1-0.9-0.2-1.3c-0.3-1.3-1.1-1.9-2.3-1.9
			c-0.4,0-0.8,0.1-1.2,0.3c-1.2,0.6-1.8,1.9-1.9,3.6l0,8h1C71.2,21.6,71.3,21.6,71.4,21.7z"/>
		<path d="M95.7,20.2c-1.1,1.8-2.9,2.6-5.4,2.6c-1.5,0-2.8-0.3-3.9-1c-2.2-1.3-3.3-3.4-3.3-6.4c0-1.8,0.5-3.4,1.4-4.7
			c1.3-1.8,3.2-2.7,5.7-2.7c1.4,0,2.6,0.3,3.7,0.8c1.7,0.9,2.6,2.2,2.6,3.9c0,0.5-0.1,0.9-0.3,1.2c-0.7,1-2.6,1.5-5.9,1.4L87,15.3
			c0,0,0,0,0,0.1c0.1,4.3,1.4,6.5,4,6.5c0.5,0,0.9-0.1,1.4-0.2c1.4-0.4,2.4-1.3,3-2.7l0.8,0.3C96,19.5,95.9,19.8,95.7,20.2z M89.5,9
			c-1.5,0.5-2.4,2.3-2.4,5.3l2.5,0.1c0.9,0,1.6,0,2.1-0.2c0.7-0.3,1.1-0.9,1.1-1.9c0-0.4,0-0.7-0.1-1.1c-0.3-1.6-1.1-2.4-2.4-2.4
			C90,8.9,89.7,9,89.5,9z"/>
		<path d="M107.8,22.5v-0.9h3.1V3.8h-0.9c-0.4,0-0.8,0.1-1.2,0.2c-1.2,0.4-2,1.4-2.5,3.1l-0.8,2.7h-1l0.2-6.8h16.6l0.1,6.8h-0.9
			L119.5,7c-0.1-0.3-0.2-0.6-0.3-0.8c-0.7-1.6-1.8-2.4-3.4-2.4h-1v17.8h2.2c0.4,0,0.7,0.3,0.9,0.9H107.8z"/>
		<path d="M130.2,21.7c0.3,0,0.5,0.3,0.5,0.8h-7.8v-0.8c0.4,0,0.8,0,1-0.1c0.7-0.2,1.1-0.7,1.1-1.7V9.4h-2.1V8.5h5.7v13.1h1.3
			C130,21.6,130.1,21.6,130.2,21.7z M128.7,5.2c-0.4,0.8-1.1,1.1-1.9,1.1c-0.4,0-0.7-0.1-1-0.2c-0.8-0.4-1.2-1-1.2-1.9
			c0-0.4,0.1-0.7,0.3-1c0.4-0.8,1.1-1.2,1.9-1.2c0.4,0,0.7,0.1,1,0.3c0.8,0.4,1.2,1.1,1.2,2C128.9,4.5,128.8,4.8,128.7,5.2z"/>
		<path d="M139.1,21.7c0.3,0,0.5,0.3,0.5,0.8h-7.3v-0.8c0.4,0,0.7,0,1-0.1c0.7-0.1,1.1-0.7,1.1-1.7V9.4h-2.1V8.5h5.5l0.2,2.6
			c0.1-0.2,0.2-0.4,0.3-0.5c1-1.7,2.4-2.5,4.3-2.5c0.4,0,0.7,0.1,1.1,0.2c1.4,0.4,2.3,1.4,2.7,3c0-0.1,0.1-0.1,0.1-0.2
			c1-2,2.6-3,4.6-3c0.8,0,1.5,0.2,2.1,0.6c1.4,0.9,2.1,2.4,2.1,4.6v8.4h1.2c0.1,0,0.3,0,0.4,0c0.3,0.1,0.4,0.3,0.4,0.8H150v-0.8
			c0.5,0,0.8,0,1.1-0.2c0.4-0.2,0.6-0.7,0.6-1.6v-7c0-0.6-0.1-1.1-0.2-1.6c-0.4-1.1-1.1-1.7-2.1-1.7c-0.3,0-0.6,0.1-0.9,0.2
			c-1,0.5-1.7,1.6-1.9,3.2v0.4v8.2h0.9c0.1,0,0.3,0,0.4,0c0.3,0.1,0.4,0.3,0.4,0.8h-6.9v-0.8c0.5,0,0.8,0,1.1-0.2
			c0.4-0.2,0.6-0.7,0.6-1.6v-7c0-0.6-0.1-1.1-0.2-1.6c-0.4-1.1-1-1.6-1.9-1.6c-0.4,0-0.7,0.1-1,0.3c-1.1,0.6-1.7,1.8-1.9,3.6l0,8
			h0.9C138.9,21.6,139,21.6,139.1,21.7z"/>
		<path d="M171.6,20.2c-1.1,1.8-2.9,2.6-5.4,2.6c-1.5,0-2.8-0.3-3.9-1c-2.2-1.3-3.3-3.4-3.3-6.4c0-1.8,0.5-3.4,1.4-4.7
			c1.3-1.8,3.2-2.7,5.7-2.7c1.4,0,2.6,0.3,3.7,0.8c1.7,0.9,2.6,2.2,2.6,3.9c0,0.5-0.1,0.9-0.3,1.2c-0.6,1-2.6,1.5-5.9,1.4l-3.3-0.1
			c0,0,0,0,0,0.1c0.1,4.3,1.4,6.5,4,6.5c0.5,0,0.9-0.1,1.4-0.2c1.4-0.4,2.4-1.3,3-2.7l0.8,0.3C172,19.5,171.8,19.8,171.6,20.2z
			 M165.4,9c-1.5,0.5-2.4,2.3-2.4,5.3l2.5,0.1c0.9,0,1.6,0,2.1-0.2c0.7-0.3,1.1-0.9,1.1-1.9c0-0.4,0-0.7-0.1-1.1
			c-0.3-1.6-1.1-2.4-2.4-2.4C165.9,8.9,165.6,9,165.4,9z"/>
	</g>
	<g>
		<path class="st0" d="M21.6,7.9c0.7,1.5,1.2,3.1,1.2,4.9c0,6-4.9,11-11,11s-11-4.9-11-11s4.9-11,11-11c2.2,0,4.2,0.7,5.9,1.8
			c-0.1,0-0.2,0-0.3,0c-0.5,0-1.1,0.2-1.5,0.5c-1.3-0.6-2.7-1-4.2-1c-3.3,0-6.2,1.6-7.9,4.1l5.5,3.4l-0.6,0.6
			c-0.1,0.1-0.2,0.3-0.3,0.4L3.2,8.4c-0.7,1.3-1.1,2.8-1.1,4.4c0,5.3,4.3,9.7,9.7,9.7s9.7-4.3,9.7-9.7c0-1.2-0.2-2.3-0.6-3.3l0,0
			C21.3,9,21.5,8.5,21.6,7.9z M8.9,4.4l0.3,1C9.5,5.3,9.8,5.3,10,5.2l-0.2-1C9.5,4.3,9.2,4.3,8.9,4.4z M4.1,13.8l-1,0.1
			c0,0.3,0.1,0.6,0.2,0.9l1-0.2C4.2,14.3,4.1,14.1,4.1,13.8z M18.5,18.4l-0.8-0.7c-0.2,0.2-0.3,0.4-0.5,0.6l0.7,0.7
			C18.1,18.9,18.3,18.6,18.5,18.4z M12.1,5c0.3,0,0.5,0,0.8,0.1l0.1-1C12.7,4,12.4,4,12.2,4L12.1,5z M6.1,19.5
			c0.2,0.2,0.5,0.4,0.7,0.5l0.6-0.9C7.2,19,7,18.9,6.8,18.7L6.1,19.5z M16,20.5l-0.5-0.9c-0.2,0.1-0.5,0.2-0.7,0.3l0.4,0.9
			C15.5,20.7,15.8,20.6,16,20.5z M4.2,10.9l-1-0.2c-0.1,0.3-0.1,0.6-0.2,0.9l1,0.1C4.1,11.5,4.2,11.2,4.2,10.9z M20.6,13.3
			c0-0.2,0-0.3,0-0.5c0-0.1,0-0.3,0-0.4l-0.5,0l-0.5,0.1c0,0.1,0,0.2,0,0.3c0,0.1,0,0.3,0,0.4L20.6,13.3z M8.9,21.1
			c0.3,0.1,0.6,0.2,0.9,0.2l0.2-1c-0.3-0.1-0.5-0.1-0.8-0.2L8.9,21.1z M20.1,15.6l-1-0.3C19,15.5,19,15.8,18.8,16l0.9,0.4
			C19.9,16.1,20,15.9,20.1,15.6z M12.1,20.5l0.1,1c0.3,0,0.6,0,0.8-0.1l-0.1-1C12.6,20.5,12.4,20.5,12.1,20.5z M4.1,17
			c0.1,0.3,0.3,0.5,0.5,0.8l0.9-0.6C5.2,17,5.1,16.7,5,16.5L4.1,17z M6.1,6l0.7,0.8C7,6.7,7.2,6.5,7.4,6.3L6.8,5.5
			C6.6,5.7,6.4,5.8,6.1,6z M18.3,5.1c-0.3-0.3-0.6-0.4-0.9-0.4s-0.7,0.1-0.9,0.4L9.6,12c-0.5,0.5-0.5,1.4,0,2l1.5,1.5
			c0.3,0.3,0.6,0.4,1,0.4c0.4,0,0.7-0.1,1-0.4L20,8.6c0.5-0.5,0.5-1.3,0-1.8c-0.1-0.1-0.1-0.3,0-0.4l1.7-1.7c0.2-0.2,0.2-0.5,0-0.7
			l-0.6-0.6c-0.1-0.1-0.2-0.1-0.3-0.1s-0.2,0-0.3,0.1l-1.7,1.7c-0.1,0.1-0.1,0.1-0.2,0.1C18.5,5.2,18.4,5.2,18.3,5.1z"/>
	</g>
</g>
</svg>
