<?xml version="1.0" encoding="utf-8"?>
<!-- Generator: Adobe Illustrator 24.0.0, SVG Export Plug-In . SVG Version: 6.00 Build 0)  -->
<svg version="1.1" id="Layer_1" xmlns="http://www.w3.org/2000/svg" xmlns:xlink="http://www.w3.org/1999/xlink" x="0px" y="0px"
	 viewBox="0 0 21.68 26.6" style="enable-background:new 0 0 21.68 26.6;" xml:space="preserve">
<style type="text/css">
	.st0{fill:#FFFFFF;}
</style>
<path class="st0" d="M21.46,25.23l-6.94-9.96c1.45-1.28,2.42-2.99,2.77-4.92c0.4-2.26-0.1-4.55-1.41-6.43
	C13.16,0.02,7.79-0.94,3.89,1.77C0,4.49-0.96,9.86,1.76,13.75c1.67,2.4,4.35,3.68,7.07,3.68c1.38,0,2.77-0.35,4.04-1.04l6.95,9.97
	L21.46,25.23z M3.4,12.61C1.31,9.62,2.05,5.5,5.04,3.41c1.15-0.8,2.46-1.18,3.77-1.18c2.09,0,4.15,0.99,5.43,2.83
	c1.01,1.45,1.39,3.2,1.08,4.94s-1.28,3.25-2.73,4.26C9.6,16.33,5.48,15.6,3.4,12.61z"/>
</svg>
